<svg xmlns="http://www.w3.org/2000/svg" xmlns:xlink="http://www.w3.org/1999/xlink" version="1.1" x="0px" y="0px" viewBox="0 0 94.057 75.75750000000001" enable-background="new 0 0 94.057 60.606" xml:space="preserve"><g><g><path d="M47.417,59.047c-0.391,0-0.774-0.068-1.145-0.203l-23.259-8.658c-1.283-0.476-2.134-1.701-2.134-3.076V31.003    l-16.685-7.81c-1.214-0.57-1.958-1.816-1.888-3.152c0.07-1.33,0.945-2.49,2.212-2.924L46.418,2.729    c0.693-0.239,1.45-0.237,2.142,0.003l41.535,14.389c1.341,0.46,2.23,1.733,2.208,3.151c-0.024,1.418-0.951,2.66-2.307,3.081    l-41.535,12.94c-1.73,0.543-3.572-0.426-4.107-2.153c-0.54-1.729,0.426-3.567,2.154-4.107l32.015-9.979L47.479,9.302    L14.322,20.687l11.231,5.255c1.148,0.541,1.887,1.699,1.887,2.971v15.918l19.977,7.438l19.972-7.438v-7.963    c0-1.811,1.474-3.283,3.283-3.283s3.283,1.473,3.283,3.283V47.11c0,1.375-0.856,2.601-2.139,3.076l-23.255,8.658    C48.191,58.979,47.801,59.047,47.417,59.047z"/></g></g></svg>
